<svg width="24" height="24" viewBox="0 0 24 24" fill="none" xmlns="http://www.w3.org/2000/svg">
<path d="M4 19V5C4 4.44772 4.44772 4 5 4C5.55228 4 6 4.44772 6 5V19C6 19.5523 5.55228 20 5 20C4.44772 20 4 19.5523 4 19Z" fill="#5B5B5B"/>
<path d="M9.5 15V9C9.5 8.44772 9.05228 8 8.5 8C7.94772 8 7.5 8.44772 7.5 9V15C7.5 15.5523 7.94772 16 8.5 16C9.05228 16 9.5 15.5523 9.5 15Z" fill="#5B5B5B"/>
<path d="M13 17V7C13 6.44772 12.5523 6 12 6C11.4477 6 11 6.44772 11 7V17C11 17.5523 11.4477 18 12 18C12.5523 18 13 17.5523 13 17Z" fill="#5B5B5B"/>
<path d="M14.5 13V11C14.5 10.4477 14.9477 10 15.5 10C16.0523 10 16.5 10.4477 16.5 11V13C16.5 13.5523 16.0523 14 15.5 14C14.9477 14 14.5 13.5523 14.5 13Z" fill="#5B5B5B"/>
<path d="M18 15V9C18 8.44772 18.4477 8 19 8C19.5523 8 20 8.44772 20 9V15C20 15.5523 19.5523 16 19 16C18.4477 16 18 15.5523 18 15Z" fill="#5B5B5B"/>
</svg>
