<svg width="24" height="24" viewBox="0 0 24 24" fill="none" xmlns="http://www.w3.org/2000/svg">
<path d="M21 6C19.55 6 18.74 7.44 19.07 8.51L15.52 12.07C15.22 11.98 14.78 11.98 14.48 12.07L11.93 9.52C12.27 8.45 11.46 7 10 7C8.55 7 7.73 8.44 8.07 9.52L3.51 14.07C2.44 13.74 1 14.55 1 16C1 17.1 1.9 18 3 18C4.45 18 5.26 16.56 4.93 15.49L9.48 10.93C9.78 11.02 10.22 11.02 10.52 10.93L13.07 13.48C12.73 14.55 13.54 16 15 16C16.45 16 17.27 14.56 16.93 13.48L20.49 9.93C21.56 10.26 23 9.45 23 8C23 6.9 22.1 6 21 6Z" fill="#5B5B5B"/>
</svg>
