<svg width="24" height="24" viewBox="0 0 24 24" fill="none" xmlns="http://www.w3.org/2000/svg">
<path fill-rule="evenodd" clip-rule="evenodd" d="M4 6V18C4 19.1046 4.89543 20 6 20H18C19.1046 20 20 19.1046 20 18V6C20 4.89543 19.1046 4 18 4H6C4.89543 4 4 4.89543 4 6ZM8.81 8.25C8.41 8.08333 7.93667 8 7.39 8C6.82333 8 6.33 8.08333 5.91 8.25C5.49667 8.41667 5.18 8.64333 4.96 8.93C4.74667 9.21667 4.64 9.53333 4.64 9.88V10.13H6.31C6.31 9.91667 6.39 9.73667 6.55 9.59C6.71 9.44333 6.93333 9.37 7.22 9.37C7.49333 9.37 7.70667 9.44667 7.86 9.6C8.02 9.75333 8.1 9.94 8.1 10.16C8.1 10.3933 8.03333 10.5733 7.9 10.7C7.77333 10.82 7.60667 10.88 7.4 10.88H6.83V12.11H7.56C7.76667 12.11 7.93333 12.1733 8.06 12.3C8.19333 12.42 8.26 12.5967 8.26 12.83C8.26 13.4433 7.91333 13.75 7.22 13.75C6.52667 13.75 6.18 13.4767 6.18 12.93H4.42V13.14C4.42 13.5133 4.52667 13.85 4.74 14.15C4.95333 14.45 5.28 14.6867 5.72 14.86C6.16 15.0333 6.70333 15.12 7.35 15.12C8.29 15.12 9 14.9367 9.48 14.57C9.96667 14.1967 10.2233 13.7167 10.25 13.13C10.25 12.71 10.1433 12.3533 9.93 12.06C9.72333 11.76 9.43 11.55 9.05 11.43V11.39C9.34333 11.2767 9.58333 11.0833 9.77 10.81C9.95667 10.53 10.05 10.2167 10.05 9.87C10.05 9.52333 9.94333 9.21 9.73 8.93C9.52333 8.64333 9.21667 8.41667 8.81 8.25ZM13.4379 9.4C13.8699 9.4 14.2433 9.46933 14.5579 9.608C14.8779 9.74133 15.1233 9.93333 15.2939 10.184C15.4699 10.4347 15.5579 10.7253 15.5579 11.056C15.5579 11.3653 15.4806 11.6453 15.3259 11.896C15.1713 12.1467 14.9766 12.368 14.7419 12.56C14.5073 12.752 14.1846 12.9867 13.7739 13.264C13.5446 13.4133 13.3579 13.5413 13.2139 13.648H15.6219V15H11.0619V14.616C11.0619 14.3333 11.1259 14.0827 11.2539 13.864C11.3873 13.64 11.5793 13.416 11.8299 13.192C12.0859 12.968 12.4539 12.664 12.9339 12.28C13.3179 11.976 13.5873 11.744 13.7419 11.584C13.8966 11.424 13.9739 11.2667 13.9739 11.112C13.9739 10.9467 13.9153 10.808 13.7979 10.696C13.6859 10.584 13.5153 10.528 13.2859 10.528C13.0459 10.528 12.8566 10.5973 12.7179 10.736C12.5793 10.8747 12.5099 11.056 12.5099 11.28V11.44H11.0859C11.0806 11.3973 11.0779 11.3387 11.0779 11.264C11.0779 10.688 11.2779 10.2347 11.6779 9.904C12.0833 9.568 12.6699 9.4 13.4379 9.4ZM19.7499 15V14.076H18.8079V10.866H18.4059C18.1579 11.03 17.8679 11.176 17.5359 11.304C17.2039 11.428 16.9039 11.498 16.6359 11.514V12.21H17.6139V14.076H16.6359V15H19.7499Z" fill="#5B5B5B"/>
</svg>
