<svg width="24" height="24" viewBox="0 0 24 24" fill="none" xmlns="http://www.w3.org/2000/svg">
<path d="M12.6812 15.7549C12.5933 15.7842 12.4541 15.8192 12.2637 15.8599C12.0732 15.9006 11.9487 15.9404 11.8901 15.9795C11.8006 16.043 11.7559 16.1235 11.7559 16.2212C11.7559 16.3172 11.7917 16.4002 11.8633 16.4702C11.9349 16.5402 12.026 16.5752 12.1367 16.5752C12.2604 16.5752 12.3784 16.5345 12.4907 16.4531C12.5737 16.3913 12.6283 16.3156 12.6543 16.2261C12.6722 16.1675 12.6812 16.056 12.6812 15.8916V15.7549Z" fill="#5B5B5B"/>
<path fill-rule="evenodd" clip-rule="evenodd" d="M14 2H6C4.9 2 4 2.9 4 4V20C4 21.1 4.9 22 6 22H18C19.1 22 20 21.1 20 20V8L14 2ZM7.02197 14.4072L7.84229 17H8.50879L8.94824 15.3325L9.39502 17H10.0542L10.8867 14.4072H10.2104L9.71484 16.1064L9.28271 14.4072H8.62109L8.17432 16.1064L7.68848 14.4072H7.02197ZM11.1406 15.0859L11.7632 15.1982C11.8055 15.0778 11.8608 14.994 11.9292 14.9468C11.9976 14.8979 12.0928 14.8735 12.2148 14.8735C12.3955 14.8735 12.5184 14.902 12.5835 14.959C12.6486 15.0143 12.6812 15.1079 12.6812 15.2397V15.3081C12.5575 15.3602 12.3353 15.4163 12.0146 15.4766C11.777 15.5221 11.5947 15.5758 11.4678 15.6377C11.3424 15.6979 11.2448 15.7858 11.1748 15.9014C11.1048 16.0153 11.0698 16.1455 11.0698 16.292C11.0698 16.5133 11.1463 16.6965 11.2993 16.8413C11.4539 16.9862 11.6647 17.0586 11.9316 17.0586C12.083 17.0586 12.2254 17.0301 12.3589 16.9731C12.4924 16.9162 12.6177 16.8307 12.7349 16.7168C12.7397 16.7298 12.7479 16.7567 12.7593 16.7974C12.7853 16.8869 12.8073 16.9544 12.8252 17H13.5039C13.4437 16.8763 13.4022 16.7607 13.3794 16.6533C13.3582 16.5443 13.3477 16.3758 13.3477 16.1479L13.355 15.3472C13.355 15.0493 13.3241 14.8451 13.2622 14.7344C13.202 14.6221 13.097 14.5301 12.9473 14.4585C12.7975 14.3853 12.5697 14.3486 12.2637 14.3486C11.9268 14.3486 11.6729 14.4089 11.502 14.5293C11.3311 14.6497 11.2106 14.8353 11.1406 15.0859ZM13.7017 14.4072L14.7466 17H15.3643L16.3945 14.4072H15.689L15.1958 15.7305C15.1698 15.8037 15.1453 15.877 15.1226 15.9502C15.1128 15.986 15.0892 16.0601 15.0518 16.1724L14.9102 15.7305L14.4219 14.4072H13.7017Z" fill="#5B5B5B"/>
</svg>
