<svg width="24" height="24" viewBox="0 0 24 24" fill="none" xmlns="http://www.w3.org/2000/svg">
<path d="M11.9663 15.6597C11.9663 15.951 12.0241 16.1667 12.1396 16.3066C12.2552 16.445 12.396 16.5142 12.562 16.5142C12.7215 16.5142 12.8542 16.4507 12.96 16.3237C13.0658 16.1951 13.1187 15.9852 13.1187 15.6938C13.1187 15.422 13.0641 15.2202 12.9551 15.0884C12.846 14.9565 12.7109 14.8906 12.5498 14.8906C12.3822 14.8906 12.243 14.9557 12.1323 15.0859C12.0216 15.2145 11.9663 15.4058 11.9663 15.6597Z" fill="#5B5B5B"/>
<path fill-rule="evenodd" clip-rule="evenodd" d="M14 2H6C4.9 2 4 2.9 4 4V20C4 21.1 4.9 22 6 22H18C19.1 22 20 21.1 20 20V8L14 2ZM7.43994 14.4072H6.80762V17H7.49365V15.7402C7.49365 15.4912 7.51156 15.313 7.54736 15.2056C7.5848 15.0981 7.64583 15.016 7.73047 14.959C7.8151 14.902 7.91032 14.8735 8.01611 14.8735C8.104 14.8735 8.17318 14.8914 8.22363 14.9272C8.27572 14.9631 8.31396 15.0176 8.33838 15.0908C8.36279 15.1641 8.375 15.3268 8.375 15.5791V17H9.06104V15.7549C9.06104 15.5107 9.07975 15.3325 9.11719 15.2202C9.15462 15.1063 9.21566 15.02 9.30029 14.9614C9.38493 14.9028 9.47526 14.8735 9.57129 14.8735C9.70312 14.8735 9.80078 14.9224 9.86426 15.02C9.91146 15.0949 9.93506 15.2609 9.93506 15.5181V17H10.6211V15.3423C10.6211 15.0949 10.5975 14.9159 10.5503 14.8052C10.4852 14.6554 10.3867 14.5423 10.2549 14.4658C10.123 14.3877 9.96191 14.3486 9.77148 14.3486C9.62174 14.3486 9.48096 14.3828 9.34912 14.4512C9.21729 14.5195 9.0944 14.6229 8.98047 14.7612C8.90234 14.6229 8.80225 14.5195 8.68018 14.4512C8.55811 14.3828 8.41406 14.3486 8.24805 14.3486C7.93555 14.3486 7.66618 14.4862 7.43994 14.7612V14.4072ZM11.9272 14.4072H11.2876V17.9863H11.9736V16.6802C12.1022 16.8185 12.2243 16.9162 12.3398 16.9731C12.457 17.0301 12.5872 17.0586 12.7305 17.0586C13.0316 17.0586 13.2879 16.939 13.4995 16.6997C13.7111 16.4588 13.8169 16.1219 13.8169 15.689C13.8169 15.2674 13.7119 14.9386 13.502 14.7026C13.292 14.4666 13.0365 14.3486 12.7354 14.3486C12.5628 14.3486 12.4058 14.3893 12.2642 14.4707C12.1226 14.5521 12.0103 14.6579 11.9272 14.7881V14.4072ZM14.8569 15.9697L14.1929 16.0503C14.2271 16.3514 14.3507 16.5955 14.564 16.7827C14.7772 16.9683 15.0457 17.061 15.3696 17.061C15.7114 17.061 15.9971 16.9504 16.2266 16.729C16.4561 16.5076 16.5708 16.2399 16.5708 15.9258C16.5708 15.7093 16.509 15.5246 16.3853 15.3716C16.2632 15.2186 16.0996 15.1201 15.8945 15.0762C16.238 14.889 16.4097 14.6383 16.4097 14.3242C16.4097 14.1029 16.3258 13.9043 16.1582 13.7285C15.9548 13.5137 15.6846 13.4062 15.3477 13.4062C15.1507 13.4062 14.9725 13.4437 14.813 13.5186C14.6551 13.5918 14.5314 13.6935 14.4419 13.8237C14.354 13.9523 14.2881 14.1248 14.2441 14.3413L14.8765 14.4487C14.8944 14.2925 14.9448 14.1737 15.0278 14.0923C15.1108 14.0109 15.2109 13.9702 15.3281 13.9702C15.4469 13.9702 15.5422 14.006 15.6138 14.0776C15.6854 14.1493 15.7212 14.2453 15.7212 14.3657C15.7212 14.5073 15.6724 14.6213 15.5747 14.7075C15.4771 14.7922 15.3354 14.832 15.1499 14.8271L15.0742 15.3862C15.1963 15.3521 15.3013 15.335 15.3892 15.335C15.5226 15.335 15.6357 15.3854 15.7285 15.4863C15.8213 15.5872 15.8677 15.724 15.8677 15.8965C15.8677 16.0788 15.8188 16.2236 15.7212 16.3311C15.6252 16.4385 15.5063 16.4922 15.3647 16.4922C15.2329 16.4922 15.1206 16.4474 15.0278 16.3579C14.9351 16.2684 14.8781 16.139 14.8569 15.9697Z" fill="#5B5B5B"/>
</svg>
