<svg width="24" height="24" viewBox="0 0 24 24" fill="none" xmlns="http://www.w3.org/2000/svg">
<path d="M7.10995 8.52995L5.69995 7.10995C4.79995 8.26995 4.23995 9.60995 4.06995 10.9999H6.08995C6.22995 10.1299 6.57995 9.27995 7.10995 8.52995ZM6.08995 12.9999H4.06995C4.23995 14.3899 4.78995 15.7299 5.68995 16.8899L7.09995 15.4699C6.57995 14.7199 6.22995 13.8799 6.08995 12.9999ZM7.09995 18.3199C8.25995 19.2199 9.60995 19.7599 10.9999 19.9299V17.8999C10.1299 17.7499 9.28995 17.4099 8.53995 16.8699L7.09995 18.3199Z" fill="#5B5B5B"/>
<path d="M12.9999 6.08995C15.8399 6.56995 17.9999 9.02995 17.9999 11.9999C17.9999 14.9699 15.8399 17.4299 12.9999 17.9099V19.9299C16.9499 19.4399 19.9999 16.0799 19.9999 11.9999C19.9999 7.91995 16.9499 4.55995 12.9999 4.06995V6.08995Z" fill="#5B5B5B"/>
</svg>
