<svg width="24" height="24" viewBox="0 0 24 24" fill="none" xmlns="http://www.w3.org/2000/svg">
<path fill-rule="evenodd" clip-rule="evenodd" d="M15.8828 10.6671L18.299 6.48205C18.5382 6.62012 18.844 6.53818 18.9821 6.29904L19.2321 5.86603C19.5082 5.38773 19.3443 4.77614 18.866 4.5C18.3877 4.22386 17.7761 4.38773 17.5 4.86603L17.25 5.29904C17.1119 5.53818 17.1939 5.84398 17.433 5.98205L15.4455 9.42447L15.8828 10.6671Z" fill="#5B5B5B"/>
<path fill-rule="evenodd" clip-rule="evenodd" d="M9.73519 4H12.2648C12.7022 4 13.0888 4.28425 13.2193 4.70173L17.5943 18.7017C17.7955 19.3457 17.3145 20 16.6398 20H5.36019C4.68555 20 4.20449 19.3457 4.40571 18.7017L8.78071 4.70173C8.91118 4.28425 9.29781 4 9.73519 4ZM11.5 7.75V7.5C11.5 7.22386 11.2761 7 11 7C10.7239 7 10.5 7.22386 10.5 7.5V7.75C10.5 7.88807 10.3881 8 10.25 8C10.1119 8 10 8.11193 10 8.25C10 8.38807 10.1119 8.5 10.25 8.5C10.3881 8.5 10.5 8.61193 10.5 8.75V9.75C10.5 9.88807 10.3881 10 10.25 10C10.1119 10 10 10.1119 10 10.25C10 10.3881 10.1119 10.5 10.25 10.5C10.3881 10.5 10.5 10.6119 10.5 10.75V11.75C10.5 11.8881 10.3881 12 10.25 12C10.1119 12 10 12.1119 10 12.25C10 12.3881 10.1119 12.5 10.25 12.5C10.3881 12.5 10.5 12.6119 10.5 12.75V13.75C10.5 13.8881 10.3881 14 10.25 14C10.1119 14 10 14.1119 10 14.25C10 14.3881 10.1119 14.5 10.25 14.5C10.3881 14.5 10.5 14.6119 10.5 14.75V15.5H11.5V14.75C11.5 14.6119 11.6119 14.5 11.75 14.5C11.8881 14.5 12 14.3881 12 14.25C12 14.1119 11.8881 14 11.75 14C11.6119 14 11.5 13.8881 11.5 13.75V12.75C11.5 12.6119 11.6119 12.5 11.75 12.5C11.8881 12.5 12 12.3881 12 12.25C12 12.1119 11.8881 12 11.75 12C11.6119 12 11.5 11.8881 11.5 11.75V10.75C11.5 10.6119 11.6119 10.5 11.75 10.5C11.8881 10.5 12 10.3881 12 10.25C12 10.1119 11.8881 10 11.75 10C11.6119 10 11.5 9.88807 11.5 9.75V8.75C11.5 8.61193 11.6119 8.5 11.75 8.5C11.8881 8.5 12 8.38807 12 8.25C12 8.11193 11.8881 8 11.75 8C11.6119 8 11.5 7.88807 11.5 7.75Z" fill="#5B5B5B"/>
</svg>
